<svg width="154" height="136" viewBox="0 0 154 136" fill="none" xmlns="http://www.w3.org/2000/svg">
<path fill-rule="evenodd" clip-rule="evenodd" d="M129.433 27.9512C129.266 35.4192 134.568 38.9417 134.568 38.9417C134.568 38.9417 140.118 34.8845 140.279 27.6077C140.444 20.3181 134.345 16.0405 134.345 16.0405C134.345 16.0405 129.596 20.482 129.433 27.9512ZM119.435 45.709C121.627 52.6481 128.078 54.9499 128.078 54.9499C128.078 54.9499 132.193 50.0494 129.949 42.9269C127.696 35.8064 121.91 32.916 121.91 32.916C121.91 32.916 117.247 38.7712 119.435 45.709ZM141.275 42.2485C137.012 48.3808 139.478 54.2824 139.478 54.2824C139.478 54.2824 146.327 53.9924 150.472 48.0077C154.63 42.0265 151.929 35.0614 151.929 35.0614C151.929 35.0614 145.534 36.1109 141.275 42.2485ZM125.311 62.6027C126.611 69.959 121.897 74.2859 121.897 74.2859C121.897 74.2859 115.796 71.1553 114.526 63.9908C113.272 56.8212 118.648 51.6251 118.648 51.6251C118.648 51.6251 124.009 55.2507 125.311 62.6027ZM114.595 75.4505C113.987 67.9952 108.994 63.8809 108.994 63.8809C108.994 63.8809 103.153 68.5484 103.745 75.8067C104.337 83.0651 110.104 86.7581 110.104 86.7581C110.104 86.7581 115.199 82.9003 114.595 75.4505ZM94.6623 98.3673C94.6623 98.3673 90.1948 93.1593 91.7087 86.0291C93.2268 78.9001 100.16 76.1175 100.16 76.1175C100.16 76.1175 103.752 81.5088 102.202 88.8265C100.647 96.1431 94.6623 98.3673 94.6623 98.3673ZM135.485 69.1882C135.485 69.1882 134.871 62.8142 140.731 58.2114C146.605 53.6078 153.015 54.4945 153.015 54.4945C153.015 54.4945 153.555 61.9638 147.831 66.4515C142.105 70.9434 135.485 69.1882 135.485 69.1882ZM134.099 73.6355C127.363 76.8242 126.554 83.1795 126.554 83.1795C126.554 83.1795 132.623 86.3612 139.188 83.2645C145.753 80.1678 146.882 72.7554 146.882 72.7554C146.882 72.7554 140.837 70.4566 134.099 73.6355ZM115.795 93.8452C115.795 93.8452 118.477 88.0239 125.85 87.039C133.232 86.052 138.289 90.0824 138.289 90.0824C138.289 90.0824 134.982 96.8055 127.798 97.7676C120.608 98.7328 115.795 93.8452 115.795 93.8452ZM123.159 102.753C123.159 102.753 118.604 98.1452 111.17 98.2328C103.74 98.3257 100.398 103.782 100.398 103.782C100.398 103.782 104.591 109.215 111.836 109.132C119.087 109.028 123.159 102.753 123.159 102.753ZM132.731 42.9283L136.221 42.2339C136.292 42.6155 143.05 80.6318 88.3826 106.923L86.8658 103.713C138.902 78.676 133.011 44.3708 132.731 42.9283ZM11.7542 42.5488C16.0166 48.6811 13.5511 54.5827 13.5511 54.5827C13.5511 54.5827 6.70221 54.2927 2.55691 48.308C-1.60115 42.3268 1.09957 35.3617 1.09957 35.3617C1.09957 35.3617 7.49492 36.4112 11.7542 42.5488ZM24.9517 55.2502C24.9517 55.2502 31.4026 52.9483 33.5947 46.0093C35.7826 39.0715 31.1199 33.2163 31.1199 33.2163C31.1199 33.2163 25.3332 36.1067 23.0802 43.2272C20.8369 50.3497 24.9517 55.2502 24.9517 55.2502ZM31.1324 74.5862C31.1324 74.5862 26.4184 70.2593 27.7185 62.903C29.0197 55.551 34.3812 51.9254 34.3812 51.9254C34.3812 51.9254 39.757 57.1215 38.5027 64.2911C37.2334 71.4556 31.1324 74.5862 31.1324 74.5862ZM44.0354 64.1812C44.0354 64.1812 39.0422 68.2955 38.4348 75.7507C37.8305 83.2006 42.9252 87.0584 42.9252 87.0584C42.9252 87.0584 48.693 83.3653 49.2847 76.107C49.8764 68.8487 44.0354 64.1812 44.0354 64.1812ZM61.3204 86.3294C62.8342 93.4596 58.3668 98.6676 58.3668 98.6676C58.3668 98.6676 52.3821 96.4434 50.8274 89.1268C49.2769 81.809 52.8694 76.4178 52.8694 76.4178C52.8694 76.4178 59.8022 79.2004 61.3204 86.3294ZM18.4611 39.242C18.4611 39.242 23.7636 35.7195 23.5964 28.2515C23.4335 20.7823 18.6843 16.3408 18.6843 16.3408C18.6843 16.3408 12.585 20.6184 12.7499 27.908C12.9115 35.1848 18.4611 39.242 18.4611 39.242ZM12.298 58.5117C18.1581 63.1145 17.5438 69.4885 17.5438 69.4885C17.5438 69.4885 10.9237 71.2437 5.19819 66.7518C-0.526166 62.2641 0.0135873 54.7948 0.0135873 54.7948C0.0135873 54.7948 6.4239 53.9081 12.298 58.5117ZM26.4752 83.4798C26.4752 83.4798 25.6664 77.1245 18.9304 73.9358C12.1925 70.7569 6.147 73.0557 6.147 73.0557C6.147 73.0557 7.27566 80.4681 13.8409 83.5648C20.4062 86.6615 26.4752 83.4798 26.4752 83.4798ZM27.1795 87.3393C34.5522 88.3242 37.2347 94.1454 37.2347 94.1454C37.2347 94.1454 32.4213 99.0331 25.2318 98.0679C18.0477 97.1058 14.7403 90.3827 14.7403 90.3827C14.7403 90.3827 19.7971 86.3523 27.1795 87.3393ZM41.8586 98.5331C34.4252 98.4455 29.8698 103.053 29.8698 103.053C29.8698 103.053 33.9424 109.328 41.1932 109.432C48.4382 109.515 52.631 104.082 52.631 104.082C52.631 104.082 49.2889 98.626 41.8586 98.5331ZM16.8083 42.5342L20.2978 43.2286C20.0183 44.6711 14.1273 78.9763 66.1634 104.013L64.6466 107.224C9.97913 80.9321 16.7372 42.9158 16.8083 42.5342Z" fill="url(#paint0_linear_149796_121)"/>
<g filter="url(#filter0_d_149796_121)">
<path d="M42.0854 110H111.887V94.5881H67.54V93.892L85.0897 76.044C104.877 57.0526 110.345 47.8054 110.345 36.321C110.345 19.2685 96.4746 6.78977 75.9917 6.78977C55.807 6.78977 41.4888 19.3182 41.4888 38.6577H59.0385C59.0385 28.267 65.601 21.7543 75.7431 21.7543C85.4377 21.7543 92.6465 27.6705 92.6465 37.2656C92.6465 45.767 87.476 51.8324 77.4334 62.0241L42.0854 96.6761V110Z" fill="url(#paint1_linear_149796_121)"/>
</g>
<defs>
<filter id="filter0_d_149796_121" x="25.4893" y="0.789795" width="102.397" height="135.21" filterUnits="userSpaceOnUse" color-interpolation-filters="sRGB">
<feFlood flood-opacity="0" result="BackgroundImageFix"/>
<feColorMatrix in="SourceAlpha" type="matrix" values="0 0 0 0 0 0 0 0 0 0 0 0 0 0 0 0 0 0 127 0" result="hardAlpha"/>
<feOffset dy="10"/>
<feGaussianBlur stdDeviation="8"/>
<feColorMatrix type="matrix" values="0 0 0 0 0.34902 0 0 0 0 0.396078 0 0 0 0 0.878431 0 0 0 0.3 0"/>
<feBlend mode="normal" in2="BackgroundImageFix" result="effect1_dropShadow_149796_121"/>
<feBlend mode="normal" in="SourceGraphic" in2="effect1_dropShadow_149796_121" result="shape"/>
</filter>
<linearGradient id="paint0_linear_149796_121" x1="76.5145" y1="16.0405" x2="76.5145" y2="109.433" gradientUnits="userSpaceOnUse">
<stop stop-color="#DCDDE0"/>
<stop offset="1" stop-color="#DCDDE0" stop-opacity="0"/>
</linearGradient>
<linearGradient id="paint1_linear_149796_121" x1="76.5137" y1="9" x2="76.5137" y2="109" gradientUnits="userSpaceOnUse">
<stop stop-color="#5965E0"/>
<stop offset="1" stop-color="#5965E0"/>
</linearGradient>
</defs>
</svg>
